<?xml version="1.0" standalone="no"?>
<!DOCTYPE svg PUBLIC "-//W3C//DTD SVG 20010904//EN"
 "http://www.w3.org/TR/2001/REC-SVG-20010904/DTD/svg10.dtd">
<svg version="1.0" xmlns="http://www.w3.org/2000/svg"
 width="1666.000000pt" height="821.000000pt" viewBox="0 0 1666.000000 821.000000"
 preserveAspectRatio="xMidYMid meet">

<g transform="translate(0.000000,821.000000) scale(0.100000,-0.100000)"
fill="#000000" stroke="none">
<path d="M40 8115 c-27 -9 -36 -19 -38 -39 l-3 -27 40 20 c66 34 67 27 10 -58
-29 -44 -38 -65 -31 -76 7 -13 13 -10 35 22 36 52 117 130 117 114 0 -8 -20
-38 -44 -68 -28 -33 -43 -60 -39 -69 4 -12 18 -4 57 33 28 27 64 60 80 73 27
23 26 21 -8 -25 -59 -78 -36 -137 32 -81 29 25 30 25 35 6 8 -32 31 -24 92 32
53 48 55 49 36 17 -23 -37 -27 -64 -11 -74 12 -7 80 32 80 46 0 5 -11 2 -25
-7 -37 -24 -43 -9 -16 41 17 32 31 46 52 50 16 4 27 10 24 15 -7 11 102 46
112 37 11 -12 -69 -87 -101 -95 -33 -9 -47 -32 -20 -32 14 0 15 -3 6 -12 -7
-7 -12 -19 -12 -27 1 -11 10 -5 29 17 18 21 36 32 55 32 23 0 25 -2 16 -19
-13 -25 -13 -41 1 -41 5 0 15 14 20 30 6 17 18 30 28 30 23 0 46 37 25 42 -11
2 -9 11 12 41 15 20 25 40 22 43 -3 3 -21 -15 -39 -40 -18 -27 -40 -46 -51
-46 -15 0 -17 4 -9 18 5 10 17 24 25 32 21 16 20 49 0 57 -9 3 -41 0 -72 -7
-32 -8 -62 -13 -69 -12 -6 2 -35 -24 -63 -57 -90 -103 -147 -126 -66 -26 53
66 61 105 21 105 -14 0 -41 -6 -60 -14 -20 -9 -35 -10 -37 -5 -2 5 -30 -14
-62 -42 l-58 -53 21 43 c21 40 21 61 0 61 -5 0 -30 -19 -54 -41 l-45 -41 11
31 c12 35 6 62 -13 60 -7 -1 -29 -7 -48 -14z m295 -87 c-73 -81 -133 -112
-121 -62 10 38 36 74 55 74 9 0 34 9 56 19 60 29 61 26 10 -31z"/>
<path d="M885 8108 c-16 -12 -47 -36 -68 -54 -22 -19 -45 -30 -56 -27 -22 6
-53 -28 -32 -35 9 -3 1 -15 -25 -37 -21 -18 -36 -36 -32 -40 3 -4 26 12 51 34
32 30 53 41 75 41 30 0 31 -2 22 -26 -6 -14 -10 -30 -10 -35 0 -16 26 -10 45
11 17 18 17 20 2 14 -27 -10 -20 9 15 38 26 22 30 30 19 37 -11 7 -2 15 37 35
28 14 54 26 57 26 12 0 3 -21 -36 -79 -29 -44 -38 -65 -31 -76 7 -13 13 -10
35 22 36 52 117 130 117 114 0 -8 -20 -38 -44 -68 -28 -33 -43 -60 -39 -69 4
-12 18 -4 57 33 28 27 64 60 80 73 27 23 26 21 -8 -25 -59 -78 -36 -137 31
-81 30 25 30 25 39 5 9 -20 11 -19 37 18 36 52 117 131 117 114 0 -8 -20 -38
-44 -68 -28 -33 -43 -60 -39 -69 4 -12 18 -4 57 33 28 27 64 60 80 73 27 23
26 21 -8 -25 -61 -81 -36 -136 35 -78 25 20 29 21 15 5 -34 -40 -9 -35 37 7
32 30 53 41 75 41 30 0 31 -2 22 -26 -6 -14 -10 -30 -10 -35 0 -16 26 -10 45
11 17 18 17 20 2 14 -27 -10 -20 9 15 39 22 19 29 30 20 34 -21 8 -2 23 31 24
24 0 27 2 13 8 -15 6 -12 9 18 18 33 10 50 3 26 -12 -17 -10 -70 -108 -70
-129 0 -16 6 -18 40 -13 122 16 204 131 134 186 -29 23 -61 26 -114 11 -24 -7
-36 -6 -41 2 -7 12 -43 -9 -112 -68 -22 -19 -45 -30 -56 -27 -23 6 -50 -25
-32 -36 9 -6 8 -11 -4 -21 -8 -7 -18 -10 -22 -7 -3 4 -19 -1 -34 -10 -16 -9
-31 -14 -34 -11 -13 12 9 60 47 103 28 32 37 49 31 60 -7 12 -19 6 -67 -37
l-58 -52 21 43 c21 40 21 61 0 61 -5 0 -29 -18 -53 -41 l-44 -40 11 36 c14 48
0 63 -42 45 -16 -6 -34 -9 -39 -6 -5 3 -35 -18 -67 -46 l-57 -52 21 43 c21 40
21 61 0 61 -5 0 -29 -18 -53 -41 l-44 -40 11 36 c14 47 0 64 -40 46 -19 -9
-29 -9 -31 -2 -5 15 -13 13 -47 -11z m-16 -52 c-19 -33 -59 -51 -59 -27 0 9
73 71 78 66 2 -1 -7 -19 -19 -39z m750 0 c-19 -33 -59 -51 -59 -27 0 9 73 71
78 66 2 -1 -7 -19 -19 -39z m-359 25 c0 -14 -73 -120 -80 -116 -4 2 -16 -2
-26 -10 -31 -23 -47 -19 -40 11 11 44 37 74 85 99 51 26 61 29 61 16z m561 -1
c58 -32 -30 -130 -117 -130 -13 0 -24 3 -24 7 0 4 17 35 38 70 39 65 59 76
103 53z"/>
<path d="M2220 8116 c-16 -9 -42 -12 -75 -9 -62 6 -120 -15 -136 -51 -16 -34
1 -54 52 -62 21 -4 44 -13 50 -20 16 -20 -34 -37 -93 -31 -51 4 -77 -10 -56
-31 30 -30 161 1 174 40 8 25 -10 43 -58 60 -21 7 -38 18 -39 23 -3 14 41 35
75 35 29 0 29 -1 10 -15 -16 -13 -16 -14 -1 -9 12 4 17 1 17 -10 0 -13 11 -8
47 19 26 20 49 32 51 27 1 -5 -14 -40 -34 -77 -29 -52 -34 -69 -24 -78 9 -9
23 0 62 43 l49 55 -35 -75 c-34 -70 -46 -116 -28 -108 20 8 102 107 93 112 -5
4 -12 2 -16 -4 -3 -5 -15 -14 -25 -20 -18 -10 -18 -9 -4 26 8 20 27 54 40 76
18 29 23 43 15 51 -6 6 -12 9 -14 6 -20 -30 -100 -119 -104 -115 -2 2 9 31 26
65 45 88 40 109 -19 77z"/>
<path d="M2535 8108 c-16 -12 -47 -36 -68 -54 -22 -19 -45 -30 -56 -27 -22 6
-53 -28 -32 -35 9 -3 1 -15 -25 -37 -21 -18 -36 -36 -32 -40 3 -4 26 12 51 34
32 30 53 41 75 41 30 0 31 -2 22 -26 -6 -14 -10 -30 -10 -35 0 -16 26 -10 45
11 17 18 17 20 2 14 -27 -10 -20 9 15 38 28 23 31 29 18 38 -8 5 -10 10 -5 11
6 1 15 2 20 4 6 1 21 3 35 4 18 1 21 4 11 10 -9 6 2 12 38 20 89 19 97 13 62
-45 -15 -24 -28 -33 -60 -38 -25 -4 -41 -12 -41 -20 0 -9 8 -12 26 -8 24 4 25
3 14 -17 -6 -12 -22 -26 -35 -31 -13 -5 -29 -18 -35 -30 -20 -37 10 -23 63 30
27 28 53 50 57 50 4 0 13 7 20 15 9 11 9 15 1 15 -7 0 -1 21 15 51 14 28 23
57 20 65 -6 17 -52 18 -116 3 -31 -7 -46 -7 -48 0 -5 15 -13 13 -47 -11z m-16
-52 c-19 -33 -59 -51 -59 -27 0 9 73 71 78 66 2 -1 -7 -19 -19 -39z"/>
<path d="M2810 8108 c-45 -31 -70 -72 -52 -90 10 -10 16 -8 30 6 9 11 11 16 5
12 -7 -4 -13 -3 -13 3 0 12 63 61 78 61 24 0 10 -35 -60 -147 -14 -24 -16 -33
-6 -33 18 0 100 155 96 183 -4 31 -36 33 -78 5z"/>
<path d="M2980 8097 c-36 -17 -46 -28 -48 -51 -3 -23 0 -28 13 -22 9 3 24 6
32 6 12 0 13 3 4 14 -9 11 -4 17 29 30 71 28 86 19 49 -28 -23 -30 -115 -86
-140 -86 -13 0 -29 -19 -29 -34 0 -1 15 -2 33 -2 17 0 55 -4 84 -8 46 -8 52
-6 62 13 11 19 9 21 -21 22 -18 1 -43 4 -56 7 -22 7 -22 8 10 26 46 26 98 77
98 96 0 44 -51 51 -120 17z"/>
<path d="M387 7729 c-9 -5 -21 -8 -26 -4 -5 3 -13 1 -16 -5 -5 -8 -11 -7 -21
1 -19 15 -56 5 -93 -27 -20 -17 -29 -20 -25 -10 3 9 1 23 -6 31 -25 31 -151 8
-178 -32 -13 -21 -13 -23 6 -23 11 0 28 7 36 15 20 21 111 32 121 15 9 -15
-12 -36 -47 -44 -30 -7 -36 2 -16 22 9 9 9 12 0 12 -7 0 -20 -9 -29 -20 -10
-11 -25 -20 -35 -20 -20 0 -32 -16 -19 -25 6 -3 3 -17 -7 -34 -30 -53 19 -78
93 -46 61 25 57 59 -8 81 l-32 11 42 7 c24 4 45 12 49 17 10 16 22 9 17 -10
-7 -27 16 -37 35 -16 10 10 11 15 5 11 -7 -4 -13 -3 -13 3 0 12 63 61 78 61
24 0 10 -35 -60 -147 -14 -24 -16 -33 -6 -33 7 0 29 29 48 65 27 51 45 71 79
91 24 13 46 22 48 20 3 -2 -5 -23 -17 -46 -30 -58 -18 -62 14 -4 37 67 43 94
20 94 -11 0 -27 -5 -37 -11z m-252 -140 c13 -13 -21 -39 -51 -39 -30 0 -38 14
-24 41 9 16 17 19 38 14 15 -3 32 -11 37 -16z"/>
<path d="M865 7716 c-16 -7 -50 -11 -75 -8 -57 5 -116 -18 -131 -52 -16 -34 1
-54 52 -62 21 -4 44 -13 50 -20 16 -20 -34 -37 -93 -31 -51 4 -77 -10 -56 -31
30 -30 161 1 174 40 8 25 -10 43 -58 60 -21 7 -38 18 -39 23 -4 25 92 48 106
25 3 -5 0 -7 -8 -4 -8 3 -18 1 -21 -4 -9 -15 77 -7 111 11 49 26 49 21 -7 -40
-51 -58 -62 -95 -29 -101 9 -2 42 21 74 49 52 49 55 50 36 18 -23 -37 -27 -64
-11 -74 12 -7 80 32 80 46 0 5 -11 2 -25 -7 -37 -24 -43 -9 -16 41 17 32 31
46 52 50 16 4 27 10 24 15 -7 11 102 46 112 37 11 -12 -69 -87 -101 -95 -33
-9 -47 -32 -20 -32 14 0 15 -3 6 -12 -7 -7 -12 -19 -12 -27 1 -11 10 -5 29 17
18 21 36 32 55 32 23 0 25 -2 16 -19 -13 -25 -13 -41 1 -41 5 0 15 14 20 30 6
17 18 30 28 30 23 0 46 37 25 42 -11 2 -9 11 12 41 15 20 25 40 22 43 -3 3
-21 -15 -39 -40 -18 -27 -40 -46 -51 -46 -15 0 -17 4 -9 18 5 10 17 24 25 32
21 16 20 49 0 57 -9 3 -41 0 -72 -7 -32 -8 -62 -13 -69 -12 -6 2 -35 -24 -63
-57 -90 -103 -147 -126 -66 -26 54 67 61 105 19 105 -16 -1 -41 -7 -58 -14z"/>
<path d="M1425 7708 c-16 -12 -47 -36 -68 -54 -22 -19 -45 -30 -56 -27 -22 6
-53 -28 -32 -35 9 -3 1 -15 -25 -37 -21 -18 -36 -36 -32 -40 3 -4 26 12 51 34
32 30 53 41 75 41 30 0 31 -2 22 -26 -6 -14 -10 -30 -10 -35 0 -16 26 -10 45
11 17 18 17 20 2 14 -27 -10 -20 9 15 39 21 18 28 30 21 33 -9 4 -5 17 12 45
39 62 32 75 -20 37z m-16 -52 c-19 -33 -59 -51 -59 -27 0 9 73 71 78 66 2 -1
-7 -19 -19 -39z"/>
<path d="M1509 7707 c-44 -30 -68 -72 -51 -89 10 -10 16 -8 30 6 9 11 11 16 5
12 -7 -4 -13 -3 -13 3 0 12 63 61 78 61 24 0 10 -35 -60 -147 -14 -24 -16 -33
-6 -33 7 0 29 29 47 64 28 51 44 68 78 85 24 12 46 21 48 21 12 0 2 -22 -36
-79 -29 -44 -38 -65 -31 -76 7 -13 13 -10 35 22 36 52 117 130 117 114 0 -8
-20 -38 -44 -68 -28 -33 -43 -60 -39 -69 4 -12 18 -4 57 33 28 27 64 60 80 73
27 23 26 21 -8 -25 -61 -81 -34 -140 36 -75 l33 32 -32 -18 c-18 -10 -35 -15
-38 -12 -13 12 9 60 47 103 28 32 37 49 31 60 -7 12 -19 6 -67 -37 l-58 -52
21 43 c21 40 21 61 0 61 -5 0 -29 -18 -53 -41 l-44 -40 11 36 c15 49 1 61 -47
44 -28 -10 -39 -10 -48 -1 -18 18 -41 15 -79 -11z"/>
<path d="M1920 7708 c-45 -31 -70 -72 -52 -90 10 -10 16 -8 30 6 9 11 11 16 5
12 -7 -4 -13 -3 -13 3 0 12 63 61 78 61 24 0 10 -35 -60 -147 -14 -24 -16 -33
-6 -33 18 0 100 155 96 183 -4 31 -36 33 -78 5z"/>
<path d="M438 7658 c-35 -35 -67 -63 -71 -63 -9 0 -36 -43 -37 -57 -1 -21 28
-3 54 32 37 50 94 105 101 98 3 -3 -11 -32 -30 -64 -35 -58 -41 -94 -19 -101
14 -5 74 44 74 59 0 6 -8 4 -18 -5 -44 -40 -42 -8 3 68 36 58 41 85 18 92 -6
2 -40 -24 -75 -59z"/>
</g>
</svg>
